<?xml version="1.0" standalone="no"?><!DOCTYPE svg PUBLIC "-//W3C//DTD SVG 1.1//EN" "http://www.w3.org/Graphics/SVG/1.1/DTD/svg11.dtd"><svg t="1597731306160" class="icon" viewBox="0 0 1024 1024" version="1.1" xmlns="http://www.w3.org/2000/svg" p-id="4488" xmlns:xlink="http://www.w3.org/1999/xlink" width="200" height="200"><defs><style type="text/css"></style></defs><path d="M546.56 304.64l-12.8-167.68 112.64-26.88c14.08-2.56 23.04 12.8 15.36 24.32-21.76 29.44-32 98.56-5.12 158.72l-110.08 11.52z" fill="#FFFFFF" p-id="4489"></path><path d="M597.76 357.12l-12.8-167.68 112.64-26.88c14.08-2.56 23.04 12.8 15.36 24.32-21.76 29.44-32 98.56-5.12 158.72l-110.08 11.52z" fill="#00C19C" p-id="4490"></path><path d="M546.56 321.28c-3.84 0-7.68-1.28-10.24-3.84-3.84-2.56-5.12-6.4-5.12-11.52l-12.8-167.68c0-7.68 5.12-15.36 12.8-16.64l112.64-26.88c12.8-2.56 25.6 2.56 32 12.8 7.68 11.52 7.68 25.6-1.28 37.12-17.92 23.04-28.16 85.76-3.84 143.36 2.56 5.12 1.28 10.24-1.28 14.08-2.56 3.84-7.68 7.68-12.8 7.68l-110.08 10.24v1.28z m3.84-170.24l10.24 136.96 72.96-6.4c-17.92-58.88-8.96-120.32 14.08-152.32L550.4 151.04z" fill="#7F0D0D" p-id="4491"></path><path d="M599.04 631.04c117.76-108.8 79.36-300.8 34.56-330.24h-88.32c-33.28 148.48-142.08 276.48-396.8 232.96-15.36-2.56-28.16 8.96-25.6 24.32 19.2 108.8 262.4 268.8 476.16 72.96z" fill="#FFFFFF" p-id="4492"></path><path d="M650.24 683.52c117.76-108.8 79.36-300.8 34.56-330.24h-88.32C563.2 501.76 454.4 629.76 198.4 586.24c-15.36-2.56-28.16 8.96-25.6 24.32 21.76 107.52 264.96 268.8 477.44 72.96z" fill="#FFD875" p-id="4493"></path><path d="M380.16 739.84c-39.68 0-74.24-7.68-99.84-16.64-89.6-29.44-162.56-97.28-174.08-162.56-2.56-12.8 1.28-24.32 10.24-33.28 8.96-8.96 21.76-12.8 34.56-10.24C413.44 563.2 501.76 422.4 529.92 296.96c1.28-7.68 7.68-12.8 15.36-12.8h88.32c3.84 0 6.4 1.28 8.96 2.56 25.6 16.64 44.8 67.84 49.92 126.72 3.84 43.52 1.28 151.04-83.2 229.12-81.92 75.52-162.56 97.28-229.12 97.28zM143.36 549.12c-1.28 0-3.84 0-5.12 1.28-1.28 1.28-1.28 2.56-1.28 3.84 8.96 44.8 65.28 108.8 153.6 136.96 58.88 19.2 176.64 37.12 296.96-72.96 74.24-67.84 75.52-163.84 71.68-202.24-3.84-52.48-20.48-88.32-32-99.84h-69.12c-25.6 99.84-99.84 241.92-313.6 241.92-30.72 0-62.72-2.56-99.84-8.96h-1.28z m455.68 81.92z" fill="#7F0D0D" p-id="4494"></path><path d="M750.08 615.68c52.48-194.56-17.92-362.24-110.08-348.16l-60.16 35.84c11.52 65.28 17.92 381.44-366.08 506.88-12.8 3.84-19.2 17.92-11.52 29.44 55.04 93.44 471.04 65.28 547.84-224z" fill="#FFFFFF" p-id="4495"></path><path d="M802.56 666.88c52.48-194.56-17.92-362.24-110.08-348.16l-60.16 35.84c11.52 65.28 17.92 381.44-366.08 506.88-12.8 3.84-19.2 17.92-11.52 29.44 55.04 94.72 469.76 65.28 547.84-224z" fill="#FFD875" p-id="4496"></path><path d="M345.6 903.68c-76.8 0-135.68-20.48-157.44-56.32-5.12-8.96-6.4-20.48-2.56-30.72 3.84-10.24 12.8-19.2 23.04-21.76 408.32-133.12 355.84-485.12 355.84-488.96-1.28-6.4 1.28-12.8 7.68-16.64l60.16-35.84c1.28-1.28 3.84-1.28 6.4-2.56 30.72-5.12 61.44 7.68 87.04 35.84 49.92 56.32 81.92 180.48 40.96 332.8C718.08 796.16 550.4 880.64 409.6 898.56c-21.76 3.84-43.52 5.12-64 5.12z m253.44-592.64c15.36 113.92-25.6 398.08-378.88 514.56-1.28 0-2.56 1.28-3.84 2.56v2.56c16.64 28.16 88.32 49.92 189.44 35.84 130.56-17.92 286.72-94.72 330.24-256 37.12-139.52 8.96-254.72-33.28-302.08-11.52-12.8-30.72-28.16-55.04-25.6l-48.64 28.16z" fill="#7F0D0D" p-id="4497"></path><path d="M675.84 576h-1.28c-8.96-1.28-15.36-8.96-14.08-17.92 1.28-6.4 1.28-12.8 1.28-19.2 0-8.96 6.4-16.64 15.36-16.64s16.64 6.4 16.64 15.36c0 7.68 0 15.36-1.28 23.04-1.28 8.96-7.68 15.36-16.64 15.36zM480 812.8c-6.4 0-12.8-3.84-15.36-10.24-3.84-7.68 0-17.92 8.96-21.76 78.08-33.28 139.52-92.16 168.96-162.56 3.84-7.68 12.8-11.52 21.76-8.96 7.68 3.84 11.52 12.8 8.96 21.76C640 710.4 572.16 775.68 486.4 811.52c-1.28 1.28-3.84 1.28-6.4 1.28z" fill="#7F0D0D" p-id="4498"></path></svg>